<svg width="16" height="16" viewBox="0 0 16 16" fill="none" xmlns="http://www.w3.org/2000/svg">
<g id="Frame">
<g id="Group">
<path id="Vector" d="M11.0016 2.00002C10.4322 1.99845 9.86928 2.12018 9.35142 2.35684C8.83355 2.59351 8.37307 2.93949 8.00162 3.37102C7.63017 2.93949 7.16969 2.59351 6.65183 2.35684C6.13396 2.12018 5.571 1.99845 5.00162 2.00002C4.21621 2.00124 3.44854 2.23365 2.79435 2.66826C2.14015 3.10288 1.62838 3.72048 1.32286 4.44402C1.01734 5.16757 0.931585 5.96506 1.0763 6.73702C1.22101 7.50898 1.58978 8.22126 2.13662 8.78502L7.64462 14.414C7.69116 14.4615 7.74671 14.4992 7.80801 14.525C7.86931 14.5507 7.93513 14.564 8.00162 14.564C8.06835 14.564 8.1344 14.5506 8.19589 14.5247C8.25737 14.4988 8.31304 14.4608 8.35962 14.413L13.6746 8.95902C14.277 8.41964 14.7012 7.70991 14.8909 6.92392C15.0807 6.13794 15.0271 5.31284 14.7371 4.55804C14.4472 3.80324 13.9347 3.1544 13.2676 2.69755C12.6004 2.24071 11.8102 1.99744 11.0016 2.00002Z" fill="white"/>
</g>
</g>
</svg>
