<svg width="24" height="25" viewBox="0 0 24 25" fill="none" xmlns="http://www.w3.org/2000/svg">
<g id="octicon:x-24">
<path id="Vector" d="M5.71934 6.09042C5.85997 5.94997 6.05059 5.87108 6.24934 5.87108C6.44809 5.87108 6.63871 5.94997 6.77934 6.09042L11.9993 11.3104L17.2193 6.09042C17.311 5.99169 17.4276 5.91952 17.5569 5.88151C17.6861 5.8435 17.8232 5.84105 17.9537 5.87442C18.0843 5.90779 18.2034 5.97575 18.2985 6.07114C18.3937 6.16653 18.4613 6.28581 18.4943 6.41642C18.5278 6.5468 18.5254 6.68377 18.4876 6.81293C18.4498 6.94209 18.3778 7.05868 18.2793 7.15042L13.0593 12.3704L18.2793 17.5904C18.3781 17.6821 18.4502 17.7987 18.4883 17.9279C18.5263 18.0572 18.5287 18.1943 18.4953 18.3248C18.462 18.4553 18.394 18.5745 18.2986 18.6696C18.2032 18.7647 18.084 18.8324 17.9533 18.8654C17.823 18.8988 17.686 18.8965 17.5568 18.8587C17.4277 18.8208 17.3111 18.7489 17.2193 18.6504L11.9993 13.4304L6.77934 18.6504C6.63708 18.7828 6.44903 18.8549 6.25471 18.8516C6.06039 18.8482 5.87494 18.7697 5.73734 18.6324C5.6001 18.4948 5.52154 18.3094 5.51818 18.1151C5.51483 17.9207 5.58693 17.7327 5.71934 17.5904L10.9393 12.3704L5.71934 7.15042C5.57889 7.00979 5.5 6.81917 5.5 6.62042C5.5 6.42167 5.57889 6.23104 5.71934 6.09042Z" fill="black"/>
</g>
</svg>
